<?xml version="1.0" encoding="UTF-8" standalone="no"?>
<!-- Generator: Adobe Illustrator 15.0.2, SVG Export Plug-In . SVG Version: 6.00 Build 0)  -->

<svg
   version="1.2"
   x="0px"
   y="0px"
   width="479.54752"
   height="397.52798"
   viewBox="0 0 479.54751 397.52798"
   xml:space="preserve"
   id="svg3282"
   inkscape:version="1.2.2 (b0a8486541, 2022-12-01)"
   sodipodi:docname="sbipc.svg"
   xmlns:inkscape="http://www.inkscape.org/namespaces/inkscape"
   xmlns:sodipodi="http://sodipodi.sourceforge.net/DTD/sodipodi-0.dtd"
   xmlns="http://www.w3.org/2000/svg"
   xmlns:svg="http://www.w3.org/2000/svg"
   xmlns:rdf="http://www.w3.org/1999/02/22-rdf-syntax-ns#"
   xmlns:cc="http://creativecommons.org/ns#"
   xmlns:dc="http://purl.org/dc/elements/1.1/"><metadata
   id="metadata3496"><rdf:RDF><cc:Work
       rdf:about=""><dc:format>image/svg+xml</dc:format><dc:type
         rdf:resource="http://purl.org/dc/dcmitype/StillImage" /></cc:Work></rdf:RDF></metadata><defs
   id="defs3494"><clipPath
   clipPathUnits="userSpaceOnUse"
   id="clipPath18"><path
     d="M 0,3259.98 V 0 h 3903.68 v 3259.98"
     id="path20"
     inkscape:connector-curvature="0" /></clipPath>
	
	
	
	
	
	
	
	
	
	
	
	
	
	
	

	
	

	

	

	
	

	

	

	

	
	

	

	

	
	

	

	
	

	

	
	

	

	
	
	

	

	
	

	

	
	

	

	

	
	

	

	
	
	

	

	

	

		
			
		
	</defs><sodipodi:namedview
   pagecolor="#ffffff"
   bordercolor="#666666"
   borderopacity="1"
   objecttolerance="10"
   gridtolerance="10"
   guidetolerance="10"
   inkscape:pageopacity="0"
   inkscape:pageshadow="2"
   inkscape:window-width="1920"
   inkscape:window-height="1001"
   id="namedview3492"
   showgrid="false"
   inkscape:zoom="2"
   inkscape:cx="169"
   inkscape:cy="82.25"
   inkscape:window-x="-9"
   inkscape:window-y="-9"
   inkscape:window-maximized="1"
   inkscape:current-layer="svg3282"
   showborder="false"
   inkscape:showpageshadow="false"
   fit-margin-top="0"
   fit-margin-left="0"
   fit-margin-right="0"
   fit-margin-bottom="0"
   inkscape:pagecheckerboard="0"
   inkscape:deskcolor="#d1d1d1" />
<line
   stroke-miterlimit="1"
   x1="176.88362"
   y1="212.9006"
   x2="176.79723"
   y2="304.43301"
   id="line3421"
   style="fill-rule:evenodd;stroke:#000000;stroke-width:1;stroke-miterlimit:1;stroke-dasharray:none" /><g
   id="g16"
   clip-path="url(#clipPath18)"
   transform="matrix(-0.11007191,0,0,-0.13221845,324.08934,411.25172)"><path
     d="m 1452.94,762.52 c 0,840.61 0,727.68 0,727.68 h 413.33 v -181.29"
     style="fill:none;stroke:#000000;stroke-width:10;stroke-linecap:butt;stroke-linejoin:miter;stroke-miterlimit:1;stroke-dasharray:20, 40;stroke-dashoffset:0;stroke-opacity:1"
     id="path22"
     inkscape:connector-curvature="0" /><path
     d="m 1866.27,1265.34 -32.52,79.61 32.52,-18.9 32.51,18.9 -32.51,-79.61"
     style="fill:#000000;fill-opacity:1;fill-rule:nonzero;stroke:none"
     id="path24"
     inkscape:connector-curvature="0" /><path
     d="m 1543.84,809.461 c 0,627.239 0,561.169 0,561.169 h 217.3 v -202.79"
     style="fill:none;stroke:#000000;stroke-width:10;stroke-linecap:butt;stroke-linejoin:miter;stroke-miterlimit:1;stroke-dasharray:20, 40;stroke-dashoffset:0;stroke-opacity:1"
     id="path26"
     inkscape:connector-curvature="0" /><path
     d="m 1543.84,752.969 -32.52,79.609 32.52,-18.887 32.52,18.887 -32.52,-79.609"
     style="fill:#000000;fill-opacity:1;fill-rule:nonzero;stroke:none"
     id="path28"
     inkscape:connector-curvature="0" /></g><g
   id="Layer_1"
   transform="translate(16.515972,13.871498)">
</g>
<g
   id="g3285"
   transform="translate(16.515972,13.871498)">
</g>
<g
   transform="matrix(1.2,0,0,1.2,525.84152,-28.8664)"
   id="g2305_12_">
		
			<circle
   style="fill:#83c2d9"
   r="29.417"
   cx="-238.119"
   cy="252.992"
   id="circle2307_12_">
		</circle>
		
			<circle
   style="fill:#ace0f3"
   r="26.476"
   cx="-237.026"
   cy="251.89999"
   id="circle2309_12_">
		</circle>
		<path
   style="fill:#dbecf2"
   inkscape:connector-curvature="0"
   d="m -213.198,251.901 c 0,-13.161 -10.668,-23.829 -23.828,-23.829 -8.354,0 -11.742,6.938 -6.938,6.938 13.159,0 23.828,10.668 23.828,23.829 0,4.805 6.938,1.416 6.938,-6.938 z"
   connector-curvature="0"
   id="path2311_12_" />
	</g><g
   transform="matrix(1.2,0,0,1.2,525.84152,-28.8664)"
   id="g2305_11_">
		
			<circle
   style="fill:#83c2d9"
   r="29.417"
   cx="-192.595"
   cy="322.995"
   id="circle2307_11_">
		</circle>
		
			<circle
   style="fill:#ace0f3"
   r="26.476"
   cx="-191.502"
   cy="321.90302"
   id="circle2309_11_">
		</circle>
		<path
   style="fill:#dbecf2"
   inkscape:connector-curvature="0"
   d="m -167.674,321.903 c 0,-13.161 -10.668,-23.829 -23.828,-23.829 -8.354,0 -11.742,6.938 -6.938,6.938 13.159,0 23.828,10.668 23.828,23.829 0.001,4.805 6.938,1.417 6.938,-6.938 z"
   connector-curvature="0"
   id="path2311_11_" />
	</g><g
   transform="matrix(1.2,0,0,1.2,525.84152,-28.8664)"
   id="g2305_10_">
		
			<circle
   style="fill:#83c2d9"
   r="29.417"
   cx="-150.586"
   cy="241.793"
   id="circle2307_10_">
		</circle>
		
			<circle
   style="fill:#ace0f3"
   r="26.476"
   cx="-149.493"
   cy="240.701"
   id="circle2309_10_">
		</circle>
		<path
   style="fill:#dbecf2"
   inkscape:connector-curvature="0"
   d="m -125.665,240.701 c 0,-13.161 -10.668,-23.829 -23.828,-23.829 -8.354,0 -11.742,6.938 -6.938,6.938 13.159,0 23.828,10.668 23.828,23.829 0.001,4.806 6.938,1.417 6.938,-6.938 z"
   connector-curvature="0"
   id="path2311_10_" />
	</g><g
   transform="matrix(1.2,0,0,1.2,525.84152,-28.8664)"
   id="g2305_9_">
		
			<circle
   style="fill:#83c2d9"
   r="29.417"
   cx="-110.504"
   cy="300.646"
   id="circle2307_9_">
		</circle>
		
			<circle
   style="fill:#ace0f3"
   r="26.476"
   cx="-109.411"
   cy="299.55301"
   id="circle2309_9_">
		</circle>
		<path
   style="fill:#dbecf2"
   inkscape:connector-curvature="0"
   d="m -85.583,299.554 c 0,-13.161 -10.668,-23.829 -23.828,-23.829 -8.354,0 -11.742,6.938 -6.938,6.938 13.159,0 23.828,10.668 23.828,23.829 0.001,4.805 6.938,1.416 6.938,-6.938 z"
   connector-curvature="0"
   id="path2311_9_" />
	</g><g
   transform="matrix(1.2,0,0,1.2,525.84152,-28.8664)"
   id="g2305_8_">
		
			<circle
   style="fill:#83c2d9"
   r="29.417"
   cx="-70.912003"
   cy="241.174"
   id="circle2307_8_">
		</circle>
		
			<circle
   style="fill:#ace0f3"
   r="26.476"
   cx="-69.818001"
   cy="240.082"
   id="circle2309_8_">
		</circle>
		<path
   style="fill:#dbecf2"
   inkscape:connector-curvature="0"
   d="m -45.99,240.082 c 0,-13.161 -10.668,-23.829 -23.828,-23.829 -8.354,0 -11.742,6.938 -6.938,6.938 13.158,0 23.828,10.668 23.828,23.829 0,4.805 6.938,1.417 6.938,-6.938 z"
   connector-curvature="0"
   id="path2311_8_" />
	</g><g
   transform="matrix(1.2,0,0,1.2,525.84152,-24.0664)"
   id="g2305_7_">
		
			<circle
   style="fill:#83c2d9"
   r="29.417"
   cx="-290.802"
   cy="302.40799"
   id="circle2307_7_">
		</circle>
		
			<circle
   style="fill:#ace0f3"
   r="26.476"
   cx="-289.70901"
   cy="301.31601"
   id="circle2309_7_">
		</circle>
		<path
   style="fill:#dbecf2"
   inkscape:connector-curvature="0"
   d="m -265.881,301.317 c 0,-13.161 -10.668,-23.829 -23.828,-23.829 -8.354,0 -11.742,6.938 -6.938,6.938 13.159,0 23.828,10.668 23.828,23.829 0.001,4.805 6.938,1.416 6.938,-6.938 z"
   connector-curvature="0"
   id="path2311_7_" />
	</g><g
   transform="matrix(1.2,0,0,1.2,525.84152,-28.8664)"
   id="g2305_6_">
		
			<circle
   style="fill:#83c2d9"
   r="29.417"
   cx="-347.98599"
   cy="255.517"
   id="circle2307_6_">
		</circle>
		
			<circle
   style="fill:#ace0f3"
   r="26.476"
   cx="-346.89301"
   cy="254.424"
   id="circle2309_6_">
		</circle>
		<path
   style="fill:#dbecf2"
   inkscape:connector-curvature="0"
   d="m -323.065,254.425 c 0,-13.161 -10.668,-23.829 -23.828,-23.829 -8.354,0 -11.742,6.938 -6.938,6.938 13.159,0 23.828,10.668 23.828,23.829 10e-4,4.805 6.938,1.416 6.938,-6.938 z"
   connector-curvature="0"
   id="path2311_6_" />
	</g><g
   transform="matrix(1.2,0,0,1.2,525.84152,-28.8664)"
   id="g2305_5_">
		
			<circle
   style="fill:#83c2d9"
   r="29.417"
   cx="-272.06699"
   cy="122.087"
   id="circle2307_5_">
		</circle>
		
			<circle
   style="fill:#ace0f3"
   r="26.476"
   cx="-270.974"
   cy="120.995"
   id="circle2309_5_">
		</circle>
		<path
   style="fill:#dbecf2"
   inkscape:connector-curvature="0"
   d="m -247.146,120.995 c 0,-13.161 -10.668,-23.829 -23.828,-23.829 -8.354,0 -11.742,6.938 -6.938,6.938 13.159,0 23.828,10.668 23.828,23.829 0,4.805 6.938,1.417 6.938,-6.938 z"
   connector-curvature="0"
   id="path2311_5_" />
	</g><g
   transform="matrix(1.2,0,0,1.2,525.84152,-28.8664)"
   id="g2305_4_">
		
			<circle
   style="fill:#83c2d9"
   r="29.417"
   cx="-360.548"
   cy="110.035"
   id="circle2307_4_">
		</circle>
		
			<circle
   style="fill:#ace0f3"
   r="26.476"
   cx="-359.45499"
   cy="108.943"
   id="circle2309_4_">
		</circle>
		<path
   style="fill:#dbecf2"
   inkscape:connector-curvature="0"
   d="m -335.627,108.944 c 0,-13.161 -10.668,-23.829 -23.828,-23.829 -8.354,0 -11.742,6.938 -6.938,6.938 13.159,0 23.828,10.668 23.828,23.829 10e-4,4.805 6.938,1.416 6.938,-6.938 z"
   connector-curvature="0"
   id="path2311_4_" />
	</g><g
   transform="matrix(1.2,0,0,1.2,525.84152,-28.8664)"
   id="g2305_3_">
		
			<circle
   style="fill:#83c2d9"
   r="29.417"
   cx="-312.41901"
   cy="55.139"
   id="circle2307_3_">
		</circle>
		
			<circle
   style="fill:#ace0f3"
   r="26.476"
   cx="-311.32599"
   cy="54.047001"
   id="circle2309_3_">
		</circle>
		<path
   style="fill:#dbecf2"
   inkscape:connector-curvature="0"
   d="m -287.498,54.047 c 0,-13.161 -10.668,-23.829 -23.828,-23.829 -8.354,0 -11.742,6.938 -6.938,6.938 13.159,0 23.828,10.668 23.828,23.829 0,4.805 6.938,1.417 6.938,-6.938 z"
   connector-curvature="0"
   id="path2311_3_" />
	</g><g
   transform="matrix(1.2,0,0,1.2,525.84152,-28.8664)"
   id="g2305_2_">
		
			<circle
   style="fill:#83c2d9"
   r="29.417"
   cx="-228.64799"
   cy="69.625999"
   id="circle2307_2_">
		</circle>
		
			<circle
   style="fill:#ace0f3"
   r="26.476"
   cx="-227.55499"
   cy="68.532997"
   id="circle2309_2_">
		</circle>
		<path
   style="fill:#dbecf2"
   inkscape:connector-curvature="0"
   d="m -203.727,68.534 c 0,-13.161 -10.668,-23.829 -23.828,-23.829 -8.354,0 -11.742,6.938 -6.938,6.938 13.159,0 23.828,10.668 23.828,23.829 0,4.805 6.938,1.416 6.938,-6.938 z"
   connector-curvature="0"
   id="path2311_2_" />
	</g><g
   transform="matrix(1.2,0,0,1.2,525.84152,-28.8664)"
   id="g2305_1_">
		
			<circle
   style="fill:#83c2d9"
   r="29.417"
   cx="-177.22099"
   cy="121.091"
   id="circle2307_1_">
		</circle>
		
			<circle
   style="fill:#ace0f3"
   r="26.476"
   cx="-176.12801"
   cy="119.999"
   id="circle2309_1_">
		</circle>
		<path
   style="fill:#dbecf2"
   inkscape:connector-curvature="0"
   d="m -152.301,120 c 0,-13.161 -10.667,-23.829 -23.828,-23.829 -8.354,0 -11.742,6.938 -6.938,6.938 13.159,0 23.828,10.668 23.828,23.829 0.001,4.805 6.938,1.416 6.938,-6.938 z"
   connector-curvature="0"
   id="path2311_1_" />
	</g><g
   transform="matrix(1.2,0,0,1.2,525.84152,-28.8664)"
   id="g2305">
		
			<circle
   style="fill:#83c2d9"
   r="29.417"
   cx="-116.454"
   cy="86.300003"
   id="circle2307">
		</circle>
		
			<circle
   style="fill:#ace0f3"
   r="26.476"
   cx="-115.361"
   cy="85.208"
   id="circle2309">
		</circle>
		<path
   style="fill:#dbecf2"
   inkscape:connector-curvature="0"
   d="m -91.533,85.209 c 0,-13.161 -10.668,-23.829 -23.828,-23.829 -8.354,0 -11.742,6.938 -6.938,6.938 13.159,0 23.828,10.668 23.828,23.829 0.001,4.805 6.938,1.416 6.938,-6.938 z"
   connector-curvature="0"
   id="path2311" />
	</g><path
   style="fill:#fffddc;fill-rule:evenodd;stroke:#000000;stroke-width:0.9"
   inkscape:connector-curvature="0"
   id="path3341"
   d="m 456.49082,203.147 c 6.3924,0 6.2208,-5.8752 10.0224,-7.344 6.5664,-2.5056 8.8128,-5.0976 8.8128,-10.7136 v 0 L 55.940415,184.9166 v 0 c 0,0.3456 6.3936,7.6896 0,18.4896 v 0 z" /><text
   style="font-size:12px;line-height:0%;font-family:Verdana;stroke-width:1.2"
   id="text3343"
   font-size="10"
   x="201.26521"
   y="198.39502">Software bus</text>
<g
   id="g3345"
   transform="matrix(1.2,0,0,1.2,-28.035585,-22.957002)"
   style="stroke-width:0.83333333;stroke-dasharray:none">
		
			<line
   style="fill-rule:evenodd;stroke:#000000;stroke-width:0.83333333;stroke-miterlimit:1;stroke-dasharray:none"
   id="line3347"
   y2="79.508003"
   x2="149.076"
   y1="165.116"
   x1="149.14799"
   stroke-miterlimit="1" />
		<polygon
   id="polygon3349"
   points="153.21,162.224 149.154,172.177 145.081,162.23 149.147,164.588 "
   style="stroke-width:0.83333333;stroke-dasharray:none" />
	</g><text
   style="font-size:12px;line-height:0%;font-family:Verdana;stroke-width:1.2"
   id="text3351"
   font-size="10"
   x="129.88394"
   y="26.097078">Power-</text>
<text
   style="font-size:12px;line-height:0%;font-family:Verdana;stroke-width:1.2"
   id="text3353"
   font-size="10"
   x="126.43862"
   y="40.497078">Safe file</text>
<text
   style="font-size:12px;line-height:0%;font-family:Verdana;stroke-width:1.2"
   id="text3355"
   font-size="10"
   x="124.20038"
   y="54.897079">manager</text>
<g
   id="g3357"
   transform="matrix(1.2,0,0,1.2,-28.035585,-22.957002)"
   style="stroke-width:0.83333333;stroke-dasharray:none">
		
			<line
   style="fill-rule:evenodd;stroke:#000000;stroke-width:0.83333333;stroke-miterlimit:1;stroke-dasharray:none"
   id="line3359"
   y2="146.828"
   x2="189.437"
   y1="165.116"
   x1="189.509"
   stroke-miterlimit="1" />
		<polygon
   id="polygon3361"
   points="193.562,162.211 189.537,172.177 185.433,162.243 189.507,164.588 "
   style="stroke-width:0.83333333;stroke-dasharray:none" />
	</g><text
   style="font-size:12px;line-height:0%;font-family:Verdana;stroke-width:1.2"
   id="text3363"
   font-size="10"
   x="176.19121"
   y="114.01292">HFS file</text>
<text
   style="font-size:12px;line-height:0%;font-family:Verdana;stroke-width:1.2"
   id="text3365"
   font-size="10"
   x="172.62279"
   y="128.41292">manager</text>
<text
   style="font-size:12px;line-height:0%;font-family:Verdana;stroke-width:1.2"
   id="text3367"
   font-size="10"
   x="70.386734"
   y="99.515114">Process</text>
<text
   style="font-size:12px;line-height:0%;font-family:Verdana;stroke-width:1.2"
   id="text3369"
   font-size="10"
   x="66.446297"
   y="113.91512">manager</text>
<g
   id="g3371"
   transform="matrix(1.2,0,0,1.2,-28.035585,-22.957002)"
   style="stroke-width:0.83333333;stroke-dasharray:none">
		
			<line
   style="fill-rule:evenodd;stroke:#000000;stroke-width:0.83333333;stroke-miterlimit:1;stroke-dasharray:none"
   id="line3373"
   y2="134.373"
   x2="100.951"
   y1="165.116"
   x1="101.023"
   stroke-miterlimit="1" />
		<polygon
   id="polygon3375"
   points="105.081,162.218 101.04,172.177 96.952,162.237 101.022,164.588 "
   style="stroke-width:0.83333333;stroke-dasharray:none" />
	</g><text
   style="font-size:12px;line-height:0%;font-family:Verdana;stroke-width:1.2"
   id="text3377"
   font-size="10"
   x="370.45117"
   y="65.044998">Flash</text>
<text
   style="font-size:12px;line-height:0%;font-family:Verdana;stroke-width:1.2"
   id="text3379"
   font-size="10"
   x="377.0957"
   y="79.445">file</text>
<text
   style="font-size:12px;line-height:0%;font-family:Verdana;stroke-width:1.2"
   id="text3381"
   font-size="10"
   x="359.35931"
   y="93.845001">manager</text>
<g
   id="g3383"
   transform="matrix(1.2,0,0,1.2,-28.035585,-22.957002)"
   style="stroke-width:0.83333333;stroke-dasharray:none">
		
			<line
   style="fill-rule:evenodd;stroke:#000000;stroke-width:0.83333333;stroke-miterlimit:1;stroke-dasharray:none"
   id="line3385"
   y2="110.9"
   x2="345.04199"
   y1="165.116"
   x1="345.11401"
   stroke-miterlimit="1" />
		<polygon
   id="polygon3387"
   points="349.175,162.222 345.124,172.177 341.046,162.232 345.113,164.588 "
   style="stroke-width:0.83333333;stroke-dasharray:none" />
	</g><text
   style="font-size:12px;line-height:0%;font-family:Verdana;stroke-width:1.2"
   id="text3389"
   font-size="10"
   x="227.88962"
   y="51.024078">UDF file</text>
<text
   style="font-size:12px;line-height:0%;font-family:Verdana;stroke-width:1.2"
   id="text3391"
   font-size="10"
   x="224.72557"
   y="65.424072">manager</text>
<g
   id="g3393"
   transform="matrix(1.2,0,0,1.2,-28.035585,-22.957002)"
   style="stroke-width:0.83333333;stroke-dasharray:none">
		
			<line
   style="fill-rule:evenodd;stroke:#000000;stroke-width:0.83333333;stroke-miterlimit:1;stroke-dasharray:none"
   id="line3395"
   y2="94.267998"
   x2="232.847"
   y1="165.116"
   x1="232.91901"
   stroke-miterlimit="1" />
		<polygon
   id="polygon3397"
   points="236.981,162.223 232.927,172.177 228.852,162.231 232.919,164.588 "
   style="stroke-width:0.83333333;stroke-dasharray:none" />
	</g><text
   style="font-size:12px;line-height:0%;font-family:Verdana;stroke-width:1.2"
   id="text3399"
   font-size="10"
   x="290.02704"
   y="114.01292">NFS file</text>
<text
   style="font-size:12px;line-height:0%;font-family:Verdana;stroke-width:1.2"
   id="text3401"
   font-size="10"
   x="286.43823"
   y="128.41292">manager</text>
<g
   id="g3403"
   transform="matrix(1.2,0,0,1.2,-28.035585,-22.957002)"
   style="stroke-width:0.83333333;stroke-dasharray:none">
		
			<line
   style="fill-rule:evenodd;stroke:#000000;stroke-width:0.83333333;stroke-miterlimit:1;stroke-dasharray:none"
   id="line3405"
   y2="145.532"
   x2="284.28299"
   y1="165.116"
   x1="284.354"
   stroke-miterlimit="1" />
		<polygon
   id="polygon3407"
   points="288.408,162.212 284.38,172.177 280.279,162.242 284.353,164.588 "
   style="stroke-width:0.83333333;stroke-dasharray:none" />
	</g><text
   style="font-size:12px;line-height:0%;font-family:Verdana;stroke-width:1.2"
   id="text3409"
   font-size="10"
   x="96.664215"
   y="272.10583">GUI</text>
<text
   style="font-size:12px;line-height:0%;font-family:Verdana;stroke-width:1.2"
   id="text3411"
   font-size="10"
   x="81.520699"
   y="286.50583">manager</text>
<g
   id="g3413"
   transform="matrix(1.2,0,0,1.2,-28.035585,-22.957002)"
   style="stroke-width:0.83333333;stroke-dasharray:none">
		
			<line
   style="fill-rule:evenodd;stroke:#000000;stroke-width:0.83333333;stroke-miterlimit:1;stroke-dasharray:none"
   id="line3415"
   y2="221.172"
   x2="113.515"
   y1="196.548"
   x1="113.587"
   stroke-miterlimit="1" />
		<polygon
   id="polygon3417"
   points="109.514,199.425 113.607,189.487 117.644,199.449 113.585,197.076 "
   style="stroke-width:0.83333333;stroke-dasharray:none" />
	</g><polygon
   points="174.828,199.441 170.765,197.076 166.698,199.433 170.773,189.487 "
   id="polygon3423"
   transform="matrix(1.2,0,0,1.2,-28.035585,-22.957002)" /><text
   style="font-size:12px;line-height:0%;font-family:Verdana;stroke-width:1.2"
   id="text3425"
   font-size="10"
   x="210.69469"
   y="272.10535">Character</text>
<text
   style="font-size:12px;line-height:0%;font-family:Verdana;stroke-width:1.2"
   id="text3427"
   font-size="10"
   x="213.36075"
   y="286.50537">manager</text>
<g
   id="g3429"
   transform="matrix(1.2,0,0,1.2,-28.035585,-22.957002)"
   style="stroke-width:0.83333333;stroke-dasharray:none">
		
			<line
   style="fill-rule:evenodd;stroke:#000000;stroke-width:0.83333333;stroke-miterlimit:1;stroke-dasharray:none"
   id="line3431"
   y2="218.939"
   x2="223.382"
   y1="196.548"
   x1="223.455"
   stroke-miterlimit="1" />
		<polygon
   id="polygon3433"
   points="219.381,199.424 223.478,189.487 227.51,199.45 223.453,197.076 "
   style="stroke-width:0.83333333;stroke-dasharray:none" />
	</g><text
   style="font-size:12px;line-height:0%;font-family:Verdana;stroke-width:1.2"
   id="text3435"
   font-size="10"
   x="271.16583"
   y="354.83792">Mqueue</text>
<text
   style="font-size:12px;line-height:0%;font-family:Verdana;stroke-width:1.2"
   id="text3437"
   font-size="10"
   x="267.99002"
   y="369.23792">manager</text>
<g
   id="g3439"
   transform="matrix(1.2,0,0,1.2,-28.035585,-22.957002)"
   style="stroke-width:0.83333333;stroke-dasharray:none">
		
			<line
   style="fill-rule:evenodd;stroke:#000000;stroke-width:0.83333333;stroke-miterlimit:1;stroke-dasharray:none"
   id="line3441"
   y2="288.42001"
   x2="268.89999"
   y1="196.548"
   x1="268.97198"
   stroke-miterlimit="1" />
		<polygon
   id="polygon3443"
   points="264.905,199.434 268.978,189.487 273.035,199.44 268.972,197.076 "
   style="stroke-width:0.83333333;stroke-dasharray:none" />
	</g><text
   style="font-size:12px;line-height:0%;font-family:Verdana;stroke-width:1.2"
   id="text3445"
   font-size="10"
   x="367.86133"
   y="330.07736">CIFS file</text>
<text
   style="font-size:12px;line-height:0%;font-family:Verdana;stroke-width:1.2"
   id="text3447"
   font-size="10"
   x="366.49957"
   y="344.47736">manager</text>
<text
   style="font-size:12px;line-height:0%;font-family:Verdana;stroke-width:1.2"
   id="text3449"
   font-size="10"
   x="312.08881"
   y="265.87268">Application</text>
<g
   id="g3451"
   transform="matrix(1.2,0,0,1.2,-28.035585,-22.957002)"
   style="stroke-width:0.83333333;stroke-dasharray:none">
		
			<line
   style="fill-rule:evenodd;stroke:#000000;stroke-width:0.83333333;stroke-miterlimit:1;stroke-dasharray:none"
   id="line3453"
   y2="207.132"
   x2="310.979"
   y1="196.548"
   x1="310.979"
   stroke-miterlimit="1" />
		<polygon
   id="polygon3455"
   points="306.914,199.437 310.979,189.487 315.044,199.437 310.979,197.076 "
   style="stroke-width:0.83333333;stroke-dasharray:none" />
	</g><text
   style="font-size:12px;line-height:0%;font-family:Verdana;stroke-width:1.2"
   id="text3457"
   font-size="10"
   x="415.63397"
   y="257.37067">Network</text>
<text
   style="font-size:12px;line-height:0%;font-family:Verdana;stroke-width:1.2"
   id="text3459"
   font-size="10"
   x="414.01093"
   y="271.77069">manager</text>
<g
   id="g3461"
   transform="matrix(1.2,0,0,1.2,-28.035585,-22.957002)"
   style="stroke-width:0.83333333;stroke-dasharray:none">
		
			<line
   style="fill-rule:evenodd;stroke:#000000;stroke-width:0.83333333;stroke-miterlimit:1;stroke-dasharray:none"
   id="line3463"
   y2="207.132"
   x2="390.65302"
   y1="196.548"
   x1="390.65302"
   stroke-miterlimit="1" />
		<polygon
   id="polygon3465"
   points="386.589,199.437 390.653,189.487 394.718,199.437 390.653,197.076 "
   style="stroke-width:0.83333333;stroke-dasharray:none" />
	</g><g
   id="g3467"
   transform="matrix(1.2,0,0,1.2,-28.035585,-22.957002)"
   style="stroke-width:0.83333333;stroke-dasharray:none">
		
			<line
   style="fill-rule:evenodd;stroke:#000000;stroke-width:0.83333333;stroke-miterlimit:1;stroke-dasharray:none"
   id="line3469"
   y2="196.548"
   x2="351.061"
   y1="266.74799"
   x1="351.061"
   stroke-miterlimit="1" />
		<polygon
   id="polygon3471"
   points="346.996,199.437 351.061,189.487 355.127,199.437 351.061,197.076 "
   style="stroke-width:0.83333333;stroke-dasharray:none" />
	</g><text
   style="font-size:12px;line-height:0%;font-family:Verdana;stroke-width:1.2"
   id="text3473"
   font-size="10"
   x="17.826172"
   y="156.43674">QNX OS</text>
<text
   style="font-size:12px;line-height:0%;font-family:Verdana;stroke-width:1.2"
   id="text3475"
   font-size="10"
   x="7.6122131"
   y="170.83672">microkernel</text>
<text
   style="font-size:12px;line-height:0%;font-family:Verdana;stroke-width:1.2"
   id="text3477"
   font-size="10"
   x="143.83044"
   y="341.52548">Application</text>
<g
   transform="matrix(1.2,0,0,1.2,525.84152,-28.8664)"
   id="g2355">
		
			<circle
   style="fill:#f47b20"
   r="14.677"
   cx="-402.785"
   cy="186.12399"
   id="circle2357">
		</circle>
		
			<circle
   style="fill:#ffcb05"
   r="13.21"
   cx="-402.23999"
   cy="185.57899"
   id="circle2359">
		</circle>
		<path
   style="fill:#ffdf5d"
   inkscape:connector-curvature="0"
   d="m -401.024,173.752 c -0.4,-0.041 -0.805,-0.061 -1.216,-0.061 -4.168,0 -5.858,3.462 -3.462,3.462 2,0 3.885,0.494 5.54,1.367 1.679,0.819 0.614,-4.284 -0.862,-4.768 z"
   connector-curvature="0"
   id="path2361" />
		<path
   style="fill:#ffdf5d"
   inkscape:connector-curvature="0"
   d="m -392.374,178.944 c -0.874,-1.296 -1.997,-2.412 -3.299,-3.276 -2.162,-1.381 -0.127,3.47 0.652,3.897 0.78,0.427 3.393,0.496 2.647,-0.621 z"
   connector-curvature="0"
   id="path2363" />
		<path
   style="fill:#ffdf5d"
   inkscape:connector-curvature="0"
   d="m -390.351,185.579 c 0,-0.834 -0.086,-1.648 -0.25,-2.435 -0.227,-1.089 -1.868,-0.423 -3.226,-0.141 -0.591,0.123 -0.944,1.276 -0.656,2.094 0.434,1.233 0.669,2.561 0.669,3.942 0.001,2.399 3.463,0.708 3.463,-3.46 z"
   connector-curvature="0"
   id="path2365" />
		<path
   style="fill:#f47b20"
   inkscape:connector-curvature="0"
   d="m -402.785,171.447 c 3.049,0 5.521,6.57 5.521,14.677 0,8.105 -2.471,14.677 -5.521,14.677 4.137,0 7.491,-6.571 7.491,-14.677 0,-8.106 -3.353,-14.677 -7.491,-14.677 z"
   connector-curvature="0"
   id="path2367" />
		<path
   style="fill:#f47b20"
   inkscape:connector-curvature="0"
   d="m -396.583,191.396 c -1.882,0.298 -3.983,0.464 -6.201,0.464 -8.061,0 -14.595,-2.195 -14.595,-4.905 0,1.405 6.534,2.544 14.595,2.544 2.318,0 4.509,-0.094 6.456,-0.262 z"
   connector-curvature="0"
   id="path2369" />
		<path
   style="fill:#f47b20"
   inkscape:connector-curvature="0"
   d="m -396.425,182.465 c 3.277,-0.305 5.867,-0.84 7.212,-1.495 -0.072,-0.187 -0.135,-0.378 -0.213,-0.562 -1.438,0.194 -4.036,0.248 -7.275,0.261 z"
   connector-curvature="0"
   id="path2371" />
	</g>
<g
   id="g3488"
   transform="translate(16.515972,13.871498)">
</g>
<g
   id="g3490"
   transform="translate(16.515972,13.871498)">
</g>
</svg>
